# xmcd CD database file
#
# Track frame offsets:
#	150
#	9077
#	29732
#	44722
#	63880
#	84320
#
# Disc length: 1380 seconds
#
# Revision: 1
# Processed by: cddbd v1.5.1PL2 Copyright (c) Steve Scherf et al.
# Submitted via: CDex 1.51
#
DISCID=42056206
DTITLE=Hirofumi Tokutake - T for Thumb
DYEAR=1900
DGENRE=Blues
TTITLE0=T for Thumb
TTITLE1=Chili Pepper
TTITLE2=Kern Country Line
TTITLE3=Goodtime Charlies Got The Blues
TTITLE4=Oh! Girl 
TTITLE5=Wichita Lineman
EXTD=
EXTT0=
EXTT1=
EXTT2=
EXTT3=
EXTT4=
EXTT5=
PLAYORDER=
